<svg width="20" height="20" viewBox="0 0 20 20" fill="none" xmlns="http://www.w3.org/2000/svg">
<g clip-path="url(#clip0_2200_1628)">
<path d="M19.6018 5.15453C19.4888 4.72904 19.2659 4.34071 18.9556 4.02841C18.6453 3.7161 18.2584 3.49078 17.8337 3.37498C16.27 2.95453 10.02 2.95453 10.02 2.95453C10.02 2.95453 3.77002 2.95453 2.20638 3.37498C1.78163 3.49078 1.39474 3.7161 1.08443 4.02841C0.774116 4.34071 0.551274 4.72904 0.438201 5.15453C0.0200196 6.72498 0.0200195 9.99998 0.0200195 9.99998C0.0200195 9.99998 0.0200196 13.275 0.438201 14.8454C0.551274 15.2709 0.774116 15.6593 1.08443 15.9716C1.39474 16.2839 1.78163 16.5092 2.20638 16.625C3.77002 17.0454 10.02 17.0454 10.02 17.0454C10.02 17.0454 16.27 17.0454 17.8337 16.625C18.2584 16.5092 18.6453 16.2839 18.9556 15.9716C19.2659 15.6593 19.4888 15.2709 19.6018 14.8454C20.02 13.275 20.02 9.99998 20.02 9.99998C20.02 9.99998 20.02 6.72498 19.6018 5.15453Z" fill="#FF0302"/>
<path d="M7.97461 12.9739V7.02618L13.2019 10L7.97461 12.9739Z" fill="white"/>
</g>
<defs>
<clipPath id="clip0_2200_1628">
<rect width="20" height="20" fill="white"/>
</clipPath>
</defs>
</svg>
